<svg width="2570" height="2559" viewBox="0 0 2570 2559" fill="none" xmlns="http://www.w3.org/2000/svg">
<g clip-path="url(#clip0_42_2)">
<path d="M934.126 340.1C927.766 329.375 900.255 340.858 895.197 331.125C890.157 321.427 915.718 306.651 930.322 272.896C932.956 266.808 949.551 228.448 937.266 216.611C913.978 194.174 807.414 286.764 770.122 256.464C761.938 249.815 756.22 236.54 731.45 214.988C721.596 206.414 715.637 202.543 709.87 203.983C701.688 206.027 701.04 216.98 692.265 238.515C679.107 270.812 671.324 268.862 663.657 294.629C657.966 313.758 659.266 324.879 652.568 327.045C643.091 330.111 634.368 309.822 622.357 311.639C610.101 313.493 602.691 337.116 600.35 354.803C595.958 387.995 608.146 409.897 614.901 432.927C622.242 457.955 626.599 496.016 609.646 549.898L441.851 1022.72C478.895 925.702 586.155 659.737 631.226 560.903C644.237 532.372 658.603 503.432 688.101 492.01C716.5 481.014 755.503 487.579 805.228 475.599C811.035 474.2 827.15 470.099 829.178 460.619C830.855 452.782 821.376 448.407 822.833 441.067C824.786 431.221 843.427 431.1 866.333 419.741C882.486 411.731 892.549 402.205 901.202 394.013C903.811 391.543 942.592 354.376 934.126 340.1Z" fill="#181D26"/>
<path d="M273.97 589.015C266.872 589.042 264.57 605.86 258.334 605.534C252.121 605.21 252.245 588.399 239.893 571.491C237.666 568.442 223.629 549.227 214.275 551.843C196.546 556.8 211.236 635.825 185.607 645.388C179.982 647.487 171.818 646.464 154.094 652.404C147.044 654.767 143.425 656.575 142.468 659.822C141.11 664.428 146.297 667.906 154.334 678.427C166.387 694.204 163.184 697.462 173.617 708.66C181.362 716.973 187.195 719.544 186.325 723.457C185.096 728.993 172.622 727.421 170.048 733.841C167.422 740.392 176.876 750.846 184.881 757.098C199.902 768.831 214.167 769.167 227.418 772.496C241.818 776.114 261.754 784.958 283.304 808.826L466.925 1027.62C430.001 981.439 330.429 852.049 294.931 801.408C284.684 786.79 274.627 771.388 277.533 753.612C280.331 736.499 294.806 719.248 303.274 691.383C304.263 688.128 306.9 679.035 302.834 675.304C299.471 672.22 294.59 675.61 291.408 672.777C287.14 668.978 292.459 659.793 293.493 645.271C294.223 635.031 292.451 627.343 290.928 620.731C290.469 618.738 283.419 588.979 273.97 589.015Z" fill="#181D26"/>
<path d="M415.572 620.805L411.295 582.626L413.249 579.732C422.29 566.348 426.899 553.277 426.954 540.87C426.963 538.898 426.871 536.925 426.779 534.916C426.41 526.952 425.949 517.052 431.11 505.512C434.004 499.078 442.133 484.183 454.354 486.026C457.644 486.487 460.133 487.999 462.022 489.768C462.299 489.326 462.584 488.883 462.889 488.404C466.695 482.597 469.709 480.108 472.612 477.712C474.842 475.868 477.146 473.97 480.759 469.471C482.344 467.499 483.579 465.766 484.621 464.309C487.782 459.903 491.911 454.649 499.192 454.741C506.97 455.11 511.044 461.544 513.744 465.803C518.565 473.398 520.749 478.873 522.196 482.505C522.721 483.832 523.32 485.325 523.624 485.786C526.131 489.473 546.509 486.026 554.186 484.772C571.43 481.896 586.351 479.408 592.498 490.284C596.904 498.064 593.632 508.351 582.48 521.679C579.005 525.827 575.31 528.98 572.028 531.45C574.747 533.072 577.18 535.561 578.167 539.469C580.489 548.724 572.536 557.997 554.536 567.067C550.066 569.334 544.048 572.358 535.615 573.814C531.642 574.496 528.066 574.662 525.007 574.755C524.942 576.524 524.527 578.442 523.449 580.414C520.288 586.221 513.708 588.986 503.791 588.323C492.878 587.751 483.893 585.668 475.966 583.843C469.045 582.257 463.082 580.912 458.4 581.225C449.718 581.925 443.027 588.876 435.175 597.89L415.572 620.805Z" fill="#181D26"/>
<path d="M435.409 393.486L399.568 407.307L396.273 406.151C381.035 400.799 367.225 399.656 355.212 402.75C353.301 403.242 351.417 403.831 349.497 404.43C341.888 406.807 332.43 409.764 319.96 407.698C313.003 406.53 296.534 402.444 295.218 390.154C294.829 386.854 295.66 384.063 296.892 381.786C296.394 381.631 295.894 381.467 295.353 381.294C288.771 379.085 285.6 376.801 282.545 374.6C280.197 372.91 277.776 371.162 272.509 368.808C270.199 367.775 268.21 367.02 266.537 366.382C261.474 364.441 255.345 361.779 253.587 354.712C251.971 347.094 257.16 341.521 260.594 337.828C266.717 331.238 271.459 327.736 274.604 325.415C275.755 324.57 277.047 323.612 277.416 323.201C280.346 319.841 271.843 301.001 268.683 293.892C261.528 277.94 255.336 264.136 264.296 255.43C270.703 249.195 281.482 249.751 297.202 257.158C302.095 259.468 306.081 262.243 309.303 264.791C310.182 261.749 311.972 258.764 315.502 256.819C323.863 252.225 334.849 257.567 348.187 272.68C351.514 276.429 355.965 281.484 359.512 289.273C361.18 292.943 362.247 296.36 363.113 299.297C364.841 298.911 366.8 298.825 368.981 299.368C375.4 300.954 379.743 306.618 381.617 316.38C383.832 327.082 384.096 336.304 384.342 344.434C384.564 351.533 384.775 357.643 386.266 362.092C389.145 370.314 397.564 375.024 408.275 380.334L435.409 393.486Z" fill="#181D26"/>
<path d="M415.572 281.009L411.295 242.83L413.249 239.935C422.29 226.551 426.899 213.481 426.954 201.074C426.963 199.101 426.871 197.129 426.779 195.119C426.41 187.156 425.949 177.256 431.11 165.715C434.004 159.282 442.133 144.386 454.354 146.23C457.644 146.69 460.133 148.202 462.022 149.972C462.299 149.529 462.584 149.087 462.889 148.607C466.695 142.8 469.709 140.312 472.612 137.915C474.842 136.072 477.146 134.173 480.759 129.675C482.344 127.702 483.579 125.969 484.621 124.513C487.782 120.107 491.911 114.853 499.192 114.945C506.97 115.314 511.044 121.747 513.744 126.006C518.565 133.601 520.749 139.077 522.196 142.708C522.721 144.036 523.32 145.529 523.624 145.99C526.131 149.677 546.509 146.229 554.186 144.976C571.43 142.1 586.351 139.611 592.498 150.488C596.904 158.267 593.632 168.554 582.48 181.883C579.005 186.031 575.31 189.183 572.028 191.654C574.747 193.276 577.18 195.765 578.167 199.673C580.489 208.927 572.536 218.2 554.536 227.27C550.066 229.538 544.048 232.561 535.615 234.018C531.642 234.7 528.066 234.866 525.007 234.958C524.942 236.728 524.527 238.645 523.449 240.618C520.288 246.425 513.708 249.19 503.791 248.526C492.878 247.955 483.893 245.872 475.966 244.046C469.045 242.461 463.082 241.115 458.4 241.429C449.718 242.129 443.027 249.079 435.175 258.094L415.572 281.009Z" fill="#181D26"/>
<path d="M454.631 1022.1L446.631 1017.09L437.304 1018.16C437.156 1017.29 436.649 1015.3 435.885 1012.18C431.71 995.112 418.982 943.162 408.365 861.347C400.955 804.235 396.761 745.519 395.895 686.803C395.028 627.995 397.812 583.474 400.042 547.692C401.729 520.703 403.775 495.004 405.784 469.969C411.129 403.086 416.171 339.909 412.42 269.966C411.59 254.352 409.848 221.85 390.863 187.266C379.849 167.209 364.679 149.4 345.767 134.357L357.527 119.573C378.402 136.201 395.185 155.927 407.415 178.196C428.465 216.541 430.364 251.955 431.276 268.971C435.092 340.149 429.995 403.935 424.595 471.463C422.604 496.405 420.558 521.993 418.88 548.872C416.668 584.323 413.913 628.456 414.77 686.508C415.618 744.524 419.765 802.521 427.074 858.914C437.562 939.697 450.106 990.873 454.225 1007.69C456.419 1016.66 456.88 1018.54 454.631 1022.1Z" fill="#181D26"/>
<path d="M311.151 164.352C310.377 164.352 309.593 164.333 308.801 164.278C292.727 163.411 277.843 153.788 264.553 135.685C258.323 127.168 255.134 117.452 248.774 98.0771C247.788 95.0906 242.996 79.9369 240.083 59.0868C238.175 45.4631 238.415 39.7668 241.116 34.734C244.111 29.1297 248.959 25.2215 254.415 22.5853C254.175 20.7786 254.369 18.9167 255.152 17.0178C258.369 9.14602 266.921 10.1785 271.548 10.6762C273.889 10.9711 276.811 11.3583 279.963 11.1923C284.921 10.9528 287.585 9.47777 291.621 7.26548C295.483 5.1454 300.285 2.50924 307.409 1.05284C321.455 -1.87831 333.224 2.10369 337.104 3.41247C357.518 10.215 367.582 26.0877 379.232 44.4674C381.554 48.1545 389.527 61.5751 394.789 79.9735C398.586 93.2468 398.052 99.1461 396.909 103.534C394.586 112.548 389.103 117.71 375.177 129.103C360.633 141.031 353.334 147.004 347.067 150.635C332.477 159.06 323.316 164.352 311.151 164.352Z" fill="#181D26"/>
<path d="M1096.27 2537.26C1096.27 2539.78 1098.3 2541.81 1100.82 2541.81H2046.38C2048.9 2541.81 2050.93 2539.78 2050.93 2537.26C2050.93 2536.04 2050.47 2534.97 2049.7 2534.16H1706.64C1699.34 2534.16 1692.19 2533.67 1685.15 2532.71H1100.82C1098.3 2532.71 1096.27 2534.74 1096.27 2537.26Z" fill="#2F2E41"/>
<path d="M639.433 1732.14H1165.83C1255.01 1732.14 1327.31 1804.44 1327.31 1893.63V2315.95C1327.31 2405.14 1255.01 2477.44 1165.83 2477.44H639.433C550.254 2477.44 477.96 2405.14 477.96 2315.95V1893.63C477.96 1804.44 550.254 1732.14 639.433 1732.14Z" fill="#161A23"/>
<g clip-path="url(#clip1_42_2)">
<path d="M742.698 2264.79L764.33 2185.3C750.076 2160.87 742.587 2133.08 742.634 2104.79C742.634 2016.42 814.266 1944.79 902.634 1944.79C991.002 1944.79 1062.63 2016.42 1062.63 2104.79C1062.63 2193.16 991.002 2264.79 902.634 2264.79C874.358 2264.83 846.58 2257.35 822.154 2243.11L742.698 2264.79ZM844.89 2029.72C842.823 2029.85 840.804 2030.39 838.954 2031.32C837.218 2032.3 835.633 2033.53 834.25 2034.97C832.33 2036.77 831.242 2038.34 830.074 2039.86C824.16 2047.56 820.979 2057 821.034 2066.71C821.066 2074.55 823.114 2082.18 826.314 2089.32C832.858 2103.75 843.626 2119.03 857.85 2133.19C861.274 2136.6 864.618 2140.02 868.218 2143.21C885.872 2158.75 906.91 2169.96 929.658 2175.94L938.762 2177.33C941.722 2177.49 944.682 2177.27 947.658 2177.13C952.317 2176.88 956.867 2175.62 960.986 2173.43C963.642 2172.02 964.89 2171.32 967.114 2169.91C967.114 2169.91 967.802 2169.46 969.114 2168.47C971.274 2166.87 972.602 2165.73 974.394 2163.86C975.722 2162.49 976.874 2160.87 977.754 2159.03C979.002 2156.42 980.25 2151.45 980.762 2147.3C981.146 2144.13 981.034 2142.41 980.986 2141.33C980.922 2139.62 979.498 2137.85 977.946 2137.09L968.634 2132.92C968.634 2132.92 954.714 2126.85 946.218 2122.98C945.322 2122.59 944.362 2122.37 943.386 2122.33C942.291 2122.21 941.185 2122.34 940.142 2122.69C939.098 2123.04 938.142 2123.61 937.338 2124.36V2124.33C937.258 2124.33 936.186 2125.24 924.618 2139.25C923.954 2140.15 923.039 2140.82 921.99 2141.19C920.942 2141.56 919.807 2141.61 918.73 2141.33C917.687 2141.05 916.666 2140.7 915.674 2140.28C913.69 2139.45 913.002 2139.13 911.642 2138.53L911.562 2138.5C902.408 2134.5 893.933 2129.11 886.442 2122.5C884.426 2120.74 882.554 2118.82 880.634 2116.97C874.339 2110.94 868.853 2104.12 864.314 2096.68L863.37 2095.16C862.691 2094.14 862.143 2093.03 861.738 2091.88C861.13 2089.53 862.714 2087.64 862.714 2087.64C862.714 2087.64 866.602 2083.38 868.41 2081.08C869.915 2079.16 871.32 2077.17 872.618 2075.11C874.506 2072.07 875.098 2068.95 874.106 2066.53C869.626 2055.59 864.986 2044.69 860.218 2033.88C859.274 2031.73 856.474 2030.2 853.93 2029.89C853.066 2029.8 852.202 2029.7 851.338 2029.64C849.189 2029.53 847.036 2029.57 844.89 2029.72Z" fill="url(#paint0_linear_42_2)" fill-opacity="0.8"/>
</g>
<path d="M165.297 791.391H691.698C780.877 791.391 853.171 863.695 853.171 952.886V1375.2C853.171 1464.39 780.877 1536.7 691.698 1536.7H165.297C76.1178 1536.7 3.82373 1464.39 3.82373 1375.2V952.886C3.82373 863.695 76.1178 791.391 165.297 791.391Z" fill="#161A23"/>
<path d="M561.285 1039.64C536.427 1028.01 509.849 1019.56 482.062 1014.75C478.65 1020.92 474.663 1029.22 471.914 1035.82C442.376 1031.38 413.109 1031.38 384.115 1035.82C381.366 1029.22 377.289 1020.92 373.846 1014.75C346.029 1019.56 319.42 1028.05 294.563 1039.71C244.426 1115.47 230.835 1189.35 237.631 1262.18C270.884 1287.02 303.111 1302.1 334.793 1311.97C342.616 1301.21 349.593 1289.76 355.603 1277.7C344.156 1273.35 333.192 1267.98 322.833 1261.75C325.581 1259.72 328.27 1257.59 330.867 1255.4C394.051 1284.95 462.702 1284.95 525.132 1255.4C527.759 1257.59 530.447 1259.72 533.165 1261.75C522.776 1268.01 511.782 1273.38 500.335 1277.73C506.346 1289.76 513.292 1301.24 521.145 1312C552.858 1302.13 585.115 1287.05 618.368 1262.18C626.342 1177.75 604.747 1104.55 561.285 1039.64ZM364.211 1217.39C345.244 1217.39 329.689 1199.69 329.689 1178.12C329.689 1156.56 344.911 1138.82 364.211 1138.82C383.511 1138.82 399.065 1156.53 398.733 1178.12C398.763 1199.69 383.511 1217.39 364.211 1217.39ZM491.788 1217.39C472.821 1217.39 457.266 1199.69 457.266 1178.12C457.266 1156.56 472.488 1138.82 491.788 1138.82C511.087 1138.82 526.642 1156.53 526.31 1178.12C526.31 1199.69 511.087 1217.39 491.788 1217.39Z" fill="url(#paint1_linear_42_2)" fill-opacity="0.8"/>
<path d="M1638.18 1072.65C1634.35 1068.82 1603.76 988.515 1603.76 988.515L1531.11 984.69L1497.87 1063.07L1638.18 1072.65Z" fill="#FFB6B6"/>
<path d="M1535.11 1021.69C1589.12 1021.69 1632.9 977.899 1632.9 923.883C1632.9 869.868 1589.12 826.079 1535.11 826.079C1481.1 826.079 1437.31 869.868 1437.31 923.883C1437.31 977.899 1481.1 1021.69 1535.11 1021.69Z" fill="#FFB6B6"/>
<path d="M1720.39 1602.29L1754.8 1717.02L1663.03 2382.43H1600.9L1567.44 1881.46L1529.2 2053.55L1724.21 2302.12L1674.5 2359.48L1393.46 2086.05L1399.2 1663.48L1422.14 1598.47L1720.39 1602.29Z" fill="#2F2E41"/>
<path d="M1617.09 1004.23L1609.45 1004.6C1609.45 1004.6 1602.63 943.68 1598.62 940.049C1594.61 936.418 1587.35 944.433 1587.35 944.433C1587.35 944.433 1555.86 926.841 1554.92 907.743C1553.97 888.645 1553.22 873.367 1541.76 873.932C1530.31 874.496 1466.14 892.973 1450.86 893.726C1435.58 894.479 1411.35 868.871 1436.96 844.636C1462.56 820.402 1485.1 811.634 1488.73 807.626C1492.36 803.618 1516.27 787.125 1537.15 801.411C1558.04 815.698 1584.77 814.38 1584.77 814.38C1584.77 814.38 1634.98 823.393 1628.47 846.687C1621.96 869.98 1647.14 914.686 1636.81 938.167C1626.48 961.649 1617.09 1004.23 1617.09 1004.23Z" fill="#2F2E41"/>
<path d="M1598.03 2370.95L1666.85 2378.6L1674.5 2504.8C1674.5 2504.8 1670.68 2565.99 1605.68 2558.34C1540.67 2550.69 1559.79 2489.5 1559.79 2489.5L1598.03 2370.95Z" fill="#2F2E41"/>
<path d="M1687.88 2281.09C1687.88 2281.09 1737.59 2258.14 1745.24 2284.91L1760.53 2338.45C1760.53 2338.45 1760.53 2391.99 1764.36 2395.81C1768.18 2399.63 1840.83 2499.06 1775.83 2552.6C1775.83 2552.6 1741.42 2556.43 1722.3 2502.89C1703.18 2449.35 1645.82 2395.81 1645.82 2395.81C1645.82 2395.81 1634.71 2369.04 1653.65 2370.95C1672.59 2372.87 1699.36 2326.98 1691.71 2311.68C1684.06 2296.38 1687.88 2281.09 1687.88 2281.09Z" fill="#2F2E41"/>
<path d="M1056.59 1781.47C1038.8 1773.98 1033.92 1745.24 1045.7 1717.28C1050.25 1706.04 1057.43 1696.06 1066.63 1688.16L1080.37 1656.64L1079.88 1656.31L1119.39 1498.82C1128.58 1462.2 1153.87 1431.31 1188.61 1416.53C1209.27 1407.74 1228.88 1406.15 1234.58 1427.21C1244.05 1462.16 1182.42 1574.72 1145.26 1638.05L1116.32 1709.09C1117.1 1721.2 1114.97 1733.31 1110.11 1744.42C1098.34 1772.38 1074.38 1788.97 1056.59 1781.47Z" fill="#FFB6B6"/>
<path d="M1500.53 1049.7L1626.71 1053.53L1749.06 1107.06L1729.95 1424.47C1729.95 1424.47 1752.89 1497.13 1741.42 1508.6C1729.95 1520.07 1741.42 1571.51 1733.77 1572.56C1726.12 1573.61 1733.77 1628.93 1733.77 1628.93C1733.77 1628.93 1626.71 1592.73 1534.94 1615.68C1443.17 1638.62 1412.58 1600.38 1412.58 1600.38C1412.58 1600.38 1389.64 1508.6 1389.64 1489.48V1098.48L1500.53 1049.7Z" fill="#1E40AF"/>
<path d="M1410.67 1097.5C1410.67 1097.5 1357.14 1082.21 1330.37 1120.45C1303.61 1158.69 1288.31 1158.69 1288.31 1208.4C1288.31 1208.4 1131.54 1430.21 1139.19 1453.15L1102.86 1512.43L1194.63 1562.14C1194.63 1562.14 1227.13 1529.64 1227.13 1499.04C1227.13 1468.45 1318.9 1384.32 1318.9 1384.32C1318.9 1384.32 1399.2 1281.06 1403.02 1242.82C1406.85 1204.58 1410.67 1097.5 1410.67 1097.5Z" fill="#1E40AF"/>
<path d="M1882.13 1800.97H2408.53C2497.71 1800.97 2570 1873.28 2570 1962.47V2384.78C2570 2473.97 2497.71 2546.28 2408.53 2546.28H1882.13C1792.95 2546.28 1720.65 2473.97 1720.65 2384.78V1962.47C1720.65 1873.28 1792.95 1800.97 1882.13 1800.97Z" fill="#161A23"/>
<g clip-path="url(#clip2_42_2)">
<path d="M2332.39 2051.75L2274.45 2290.85C2270.07 2307.73 2258.67 2311.93 2242.47 2303.98L2154.19 2247.05L2111.59 2282.9C2106.87 2287.03 2102.93 2290.48 2093.85 2290.48L2100.19 2211.8L2263.82 2082.43C2270.93 2076.88 2262.27 2073.8 2252.76 2079.35L2050.47 2190.8L1963.39 2166.95C1944.45 2161.78 1944.1 2150.38 1967.33 2142.43L2307.96 2027.6C2323.73 2022.43 2337.53 2030.68 2332.39 2051.75Z" fill="url(#paint2_linear_42_2)" fill-opacity="0.8"/>
</g>
<path d="M1825.85 1868.01C1845.13 1867 1859.47 1841.62 1857.88 1811.32C1857.41 1799.2 1854.05 1787.38 1848.07 1776.83L1845.85 1742.51L1846.42 1742.37L1862.7 1580.81C1866.48 1543.25 1853.17 1505.61 1825.51 1479.92C1809.06 1464.63 1791.15 1456.48 1778.64 1474.36C1757.88 1504.02 1777.65 1630.82 1791.11 1703L1794.23 1779.65C1789.39 1790.77 1787.28 1802.89 1788.08 1814.99C1789.66 1845.28 1806.58 1869.02 1825.85 1868.01Z" fill="#FFB6B6"/>
<path d="M1724.89 1104.45C1724.89 1104.45 1780.44 1108.23 1792.64 1153.29C1804.84 1198.34 1819.23 1203.54 1802.36 1250.3C1802.36 1250.3 1874.55 1512.15 1859.57 1531.14L1873.63 1599.22L1770.44 1614.84C1770.44 1614.84 1750.89 1573.23 1761.28 1544.45C1771.66 1515.67 1713.89 1405.39 1713.89 1405.39C1713.89 1405.39 1673.39 1281.01 1682.77 1243.74C1692.15 1206.47 1724.89 1104.45 1724.89 1104.45Z" fill="#1E40AF"/>
</g>
<defs>
<linearGradient id="paint0_linear_42_2" x1="803.38" y1="1981.18" x2="974.283" y2="2239.62" gradientUnits="userSpaceOnUse">
<stop stop-color="#2AB540"/>
<stop offset="1" stop-color="#36CF4E"/>
</linearGradient>
<linearGradient id="paint1_linear_42_2" x1="332.353" y1="1047.46" x2="536.603" y2="1310.07" gradientUnits="userSpaceOnUse">
<stop stop-color="#5865F2"/>
<stop offset="1" stop-color="#6974ED"/>
</linearGradient>
<linearGradient id="paint2_linear_42_2" x1="2333.48" y1="2026.1" x2="2108.08" y2="2285.47" gradientUnits="userSpaceOnUse">
<stop stop-color="#239AD6"/>
<stop offset="1" stop-color="#5CBFF1"/>
</linearGradient>
<clipPath id="clip0_42_2">
<rect width="2570" height="2559" fill="white"/>
</clipPath>
<clipPath id="clip1_42_2">
<rect width="384" height="384" fill="white" transform="translate(710.633 1912.79)"/>
</clipPath>
<clipPath id="clip2_42_2">
<rect width="384" height="384" fill="white" transform="translate(1949.5 1977.8)"/>
</clipPath>
</defs>
</svg>

