<svg width="128" height="128" viewBox="0 0 128 128" fill="none" xmlns="http://www.w3.org/2000/svg">
<path d="M64.3333 11C57.3295 11 50.3942 12.3795 43.9235 15.0598C37.4529 17.74 31.5734 21.6685 26.621 26.621C16.619 36.6229 11 50.1885 11 64.3333C11 87.9067 26.3067 107.907 47.48 115C50.1467 115.427 51 113.773 51 112.333V103.32C36.2267 106.52 33.08 96.1733 33.08 96.1733C30.6267 89.9867 27.16 88.3333 27.16 88.3333C22.3067 85.0267 27.5333 85.1333 27.5333 85.1333C32.8667 85.5067 35.6933 90.6267 35.6933 90.6267C40.3333 98.7333 48.1733 96.3333 51.2133 95.0533C51.6933 91.5867 53.08 89.24 54.5733 87.9067C42.7333 86.5733 30.3067 81.9867 30.3067 61.6667C30.3067 55.7467 32.3333 51 35.8 47.2133C35.2667 45.88 33.4 40.3333 36.3333 33.1333C36.3333 33.1333 40.8133 31.6933 51 38.5733C55.2133 37.4 59.8 36.8133 64.3333 36.8133C68.8667 36.8133 73.4533 37.4 77.6667 38.5733C87.8533 31.6933 92.3333 33.1333 92.3333 33.1333C95.2667 40.3333 93.4 45.88 92.8667 47.2133C96.3333 51 98.36 55.7467 98.36 61.6667C98.36 82.04 85.88 86.52 73.9867 87.8533C75.9067 89.5067 77.6667 92.76 77.6667 97.72V112.333C77.6667 113.773 78.52 115.48 81.24 115C102.413 107.853 117.667 87.9067 117.667 64.3333C117.667 57.3295 116.287 50.3942 113.607 43.9235C110.927 37.4529 106.998 31.5734 102.046 26.621C97.0932 21.6685 91.2138 17.74 84.7431 15.0598C78.2724 12.3795 71.3372 11 64.3333 11Z" fill="white"/>
</svg>
