<svg width="128" height="128" viewBox="0 0 128 128" fill="none" xmlns="http://www.w3.org/2000/svg">
<path fill-rule="evenodd" clip-rule="evenodd" d="M29.3147 19.8187C37.5653 11.024 49.528 5.82935 64.3387 5.82935C88.6853 5.82935 104.829 19.8613 109.939 39.3067C110.298 40.6752 110.099 42.1304 109.385 43.3521C108.672 44.5739 107.502 45.4621 106.133 45.8213C104.765 46.1806 103.31 45.9815 102.088 45.2679C100.866 44.5543 99.978 43.3845 99.6187 42.016C95.7413 27.28 83.8533 16.496 64.3333 16.496C52.1413 16.496 43.1067 20.704 37.1013 27.1093C31.0427 33.5733 27.6667 42.6987 27.6667 53.1627V65.1627C27.6667 75.6267 31.0427 84.752 37.1013 91.2107C43.1067 97.6267 52.1413 101.829 64.3333 101.829C73.16 101.829 80.1627 99.7814 85.5387 96.4694C90.952 93.136 94.1787 88.7147 95.0853 83.6427C96.1253 77.7973 94.8453 73.7867 92.6427 70.8907C91.4347 69.3325 89.9659 67.9954 88.3013 66.9387C87.5813 70.9333 86.296 74.704 84.3547 77.6587C77.1973 88.5334 63.512 89.4667 54.488 85.8667C49.6027 83.92 45.416 78.592 44.1147 72.88C43.3246 69.6061 43.5877 66.1663 44.8667 63.0507C46.28 59.6587 48.8987 56.768 52.6267 54.5707C56.3173 52.3893 61.8 51.3867 67.2347 51.2373C70.5093 51.1467 74.0613 51.3653 77.6347 51.9467C76.888 48.48 75.624 45.8933 74.2 44.5653C71.6187 42.1653 67.3413 40.4747 63.0533 40.5013C58.9093 40.5333 55.3947 42.128 53.2933 45.488C52.5437 46.6875 51.3482 47.54 49.9699 47.8581C48.5917 48.1762 47.1435 47.9337 45.944 47.184C44.7445 46.4343 43.892 45.2389 43.5739 43.8606C43.2558 42.4823 43.4983 41.0342 44.248 39.8347C48.712 32.6987 56.0667 29.888 62.984 29.8347C69.7573 29.7867 76.7333 32.352 81.4693 36.7573C86.2587 41.216 88.3173 48.528 88.8507 55.1787C93.512 57.2107 97.9173 60.192 101.144 64.4427C105.309 69.936 107.101 77.0187 105.587 85.5147C104.04 94.176 98.5733 100.971 91.1333 105.552C83.8373 110.043 74.8347 112.496 64.3333 112.496C49.528 112.496 37.56 107.301 29.32 98.5067C21.128 89.7707 17 77.8987 17 65.1627V53.1627C17 40.4267 21.128 28.5547 29.32 19.8187H29.3147ZM78.1147 62.896C74.6359 62.1458 71.0802 61.8128 67.5227 61.904C62.7707 62.032 59.4373 62.9333 58.0453 63.7547C55.9973 64.9653 55.112 66.1973 54.7173 67.152C54.2963 68.2224 54.2253 69.3988 54.5147 70.512C55.1653 73.3707 57.3147 75.5147 58.44 75.9573C64.4453 78.3573 71.96 77.088 75.4427 71.7973C76.696 69.888 77.6933 66.6773 78.1093 62.896H78.1147Z" fill="white"/>
</svg>
