<svg width="128" height="128" viewBox="0 0 128 128" fill="none" xmlns="http://www.w3.org/2000/svg">
<path d="M53.6667 80.3333L81.3467 64.3333L53.6667 48.3333V80.3333ZM115.32 38.5733C116.013 41.08 116.493 44.44 116.813 48.7067C117.187 52.9733 117.347 56.6533 117.347 59.8533L117.667 64.3333C117.667 76.0133 116.813 84.6 115.32 90.0933C113.987 94.8933 110.893 97.9867 106.093 99.32C103.587 100.013 99 100.493 91.96 100.813C85.0267 101.187 78.68 101.347 72.8133 101.347L64.3333 101.667C41.9867 101.667 28.0667 100.813 22.5733 99.32C17.7733 97.9867 14.68 94.8933 13.3467 90.0933C12.6533 87.5867 12.1733 84.2267 11.8533 79.96C11.48 75.6933 11.32 72.0133 11.32 68.8133L11 64.3333C11 52.6533 11.8533 44.0667 13.3467 38.5733C14.68 33.7733 17.7733 30.68 22.5733 29.3467C25.08 28.6533 29.6667 28.1733 36.7067 27.8533C43.64 27.48 49.9867 27.32 55.8533 27.32L64.3333 27C86.68 27 100.6 27.8533 106.093 29.3467C110.893 30.68 113.987 33.7733 115.32 38.5733Z" fill="white"/>
</svg>
