<svg width="128" height="128" viewBox="0 0 128 128" fill="none" xmlns="http://www.w3.org/2000/svg">
<path d="M59.4479 0H80.3779V96.88C69.6409 98.92 61.7579 99.735 53.1969 99.735C27.6459 99.734 14.3269 88.184 14.3269 66.03C14.3269 44.692 28.4619 30.83 50.3419 30.83C53.7399 30.83 56.3219 31.102 59.4479 31.917V0ZM59.4479 48.765C57.0019 47.95 54.9629 47.679 52.3809 47.679C41.7809 47.679 35.6639 54.202 35.6639 65.618C35.6639 76.763 41.5089 82.878 52.2459 82.878C54.5549 82.878 56.4579 82.742 59.4479 82.336V48.765Z" fill="#092E20"/>
<path d="M113.672 32.3208V80.8398C113.672 97.5568 112.448 105.575 108.779 112.506C105.381 119.167 100.896 123.379 91.655 128L72.22 118.759C81.462 114.409 85.946 110.606 88.8 104.759C91.79 98.7798 92.743 91.8488 92.743 73.6368V32.3208H113.672ZM92.742 0.11084H113.672V21.5848H92.742V0.11084Z" fill="#092E20"/>
</svg>
