<svg width="128" height="128" viewBox="0 0 128 128" fill="none" xmlns="http://www.w3.org/2000/svg">
<path fill-rule="evenodd" clip-rule="evenodd" d="M64.4001 0.5C36.7001 13.9 1.90012 83.4 30.9001 113.9C57.7001 147.4 116.3 115.2 99.3001 73.4C77.8001 37.4 64.3001 35.5 64.4001 0.5Z" fill="url(#paint0_linear_1_62)"/>
<path fill-rule="evenodd" clip-rule="evenodd" d="M64.4 0.200195C36.8 13.6002 1.89999 82.9002 31 113.5C41.7 125.9 59 130 68.7 122.6C95.1 103.8 76.1 69.5002 79.1 44.1002C68.1 33.9002 64.2 11.3002 64.4 0.200195Z" fill="url(#paint1_linear_1_62)"/>
<path fill-rule="evenodd" clip-rule="evenodd" d="M56.7001 4.2998C34.4001 20.1998 28.5001 79.2998 32.6001 98.4998C40.8001 146.6 107.8 126.8 102.2 81.9998C96.2001 52.7998 53.4001 42.7998 56.7001 4.2998V4.2998Z" fill="url(#paint2_linear_1_62)"/>
<path fill-rule="evenodd" clip-rule="evenodd" d="M78.8001 49.7999C89.2001 63.1999 91.5001 72.3999 85.6001 77.6999C57.9001 97.0999 24.3001 85.0999 31.6001 40.3999C22.1001 62.9999 4.50006 96.7999 43.3001 101.6C64.1001 105.2 97.3001 103.6 102.2 85.4999C102 69.5999 91.4001 62.5999 78.8001 49.7999V49.7999Z" fill="url(#paint3_linear_1_62)"/>
<path fill-rule="evenodd" clip-rule="evenodd" d="M38.0999 36.3999C35.1999 57.5999 73.1999 114.3 96.3999 107.4C78.6999 143 39.4999 86.1999 32.3999 65.6999C33.8999 54.6999 34.5999 49.2999 38.0999 36.3999V36.3999Z" fill="url(#paint4_linear_1_62)"/>
<path fill-rule="evenodd" clip-rule="evenodd" d="M60.4 49.7C61.2 57.6 64.3 70.2 60.4 78.5C56.5 86.8 38.7 102 43.6 115.3C55 140.1 80.7 110.9 80.5 96.3C81.6 84.5 73.9 57.6 78.7 43.8L76.5 41L62.9 37C60.7 40.2 59.9 44.5 60.4 49.7Z" fill="url(#paint5_linear_1_62)"/>
<path fill-rule="evenodd" clip-rule="evenodd" d="M65.2999 10.7998C35.9999 27.3998 47.9999 53.3998 49.2999 81.5998L68.3999 26.1998C66.9999 20.4998 66.0999 16.6998 65.2999 10.7998V10.7998Z" fill="url(#paint6_linear_1_62)"/>
<path fill-rule="evenodd" clip-rule="evenodd" d="M68.3 26.1001C53.5 37.8001 54.2 57.4001 49.7 80.1001C57.8 58.8001 53.8 41.9001 68.3 26.1001V26.1001Z" fill="#330A4C" fill-opacity="0.316"/>
<path fill-rule="evenodd" clip-rule="evenodd" d="M45.8 119.7C53.8 120.8 57.9 121.9 58.3 122.7C58.6 126.9 47.2 123.9 45.8 119.7Z" fill="white"/>
<path fill-rule="evenodd" clip-rule="evenodd" d="M49.8 10.7998C42.9 18.4998 35.4 32.5998 31.6 40.4998C30.6 46.9998 31.1 56.1998 32.2 63.9998C33.1 45.7998 39.7 24.7998 49.8 10.7998V10.7998Z" fill="#EDEDED" fill-opacity="0.603"/>
<defs>
<linearGradient id="paint0_linear_1_62" x1="62.3464" y1="9.8888" x2="57.9149" y2="127.784" gradientUnits="userSpaceOnUse">
<stop stop-color="#D9D8DC"/>
<stop offset="1" stop-color="white" stop-opacity="0.385"/>
</linearGradient>
<linearGradient id="paint1_linear_1_62" x1="60.5642" y1="8.01053" x2="14.2659" y2="109.482" gradientUnits="userSpaceOnUse">
<stop stop-color="#8D67AF" stop-opacity="0.672"/>
<stop offset="1" stop-color="#9F8DAF"/>
</linearGradient>
<linearGradient id="paint2_linear_1_62" x1="66.9611" y1="42.6943" x2="66.9611" y2="124.193" gradientUnits="userSpaceOnUse">
<stop stop-color="#26053D" stop-opacity="0.762"/>
<stop offset="1" stop-color="#B7B4B4" stop-opacity="0.278"/>
</linearGradient>
<linearGradient id="paint3_linear_1_62" x1="36.7067" y1="45" x2="57.5788" y2="100.286" gradientUnits="userSpaceOnUse">
<stop stop-color="#91739F" stop-opacity="0.46"/>
<stop offset="1" stop-color="#32054F" stop-opacity="0.54"/>
</linearGradient>
<linearGradient id="paint4_linear_1_62" x1="83.5094" y1="116.062" x2="26.3024" y2="68.6803" gradientUnits="userSpaceOnUse">
<stop stop-color="#463D49" stop-opacity="0.331"/>
<stop offset="1" stop-color="#340A50" stop-opacity="0.821"/>
</linearGradient>
<linearGradient id="paint5_linear_1_62" x1="69.2485" y1="41.8547" x2="29.0339" y2="103.044" gradientUnits="userSpaceOnUse">
<stop stop-color="#715383" stop-opacity="0.145"/>
<stop offset="1" stop-color="#F4F4F4" stop-opacity="0.234"/>
</linearGradient>
<linearGradient id="paint6_linear_1_62" x1="75.7273" y1="56.8888" x2="47.7719" y2="55.1824" gradientUnits="userSpaceOnUse">
<stop stop-color="#A5A1A8" stop-opacity="0.356"/>
<stop offset="1" stop-color="#370C50" stop-opacity="0.582"/>
</linearGradient>
</defs>
</svg>
