<svg width="128" height="128" viewBox="0 0 128 128" fill="none" xmlns="http://www.w3.org/2000/svg">
<path d="M63.391 12.2479C59.169 12.2679 55.139 12.6269 51.591 13.2549C41.141 15.1009 39.245 18.9649 39.245 26.0919V35.5029H63.938V38.6399H29.977C22.801 38.6399 16.517 42.9529 14.551 51.1609C12.283 60.5659 12.183 66.4359 14.551 76.2569C16.306 83.5679 20.498 88.7759 27.675 88.7759H36.166V77.4939C36.166 69.3429 43.217 62.1539 51.592 62.1539H76.257C83.123 62.1539 88.603 56.4999 88.603 49.6059V26.0929C88.603 19.3999 82.957 14.3729 76.257 13.2559C72.013 12.5499 67.612 12.2289 63.391 12.2479V12.2479ZM50.037 19.8169C52.587 19.8169 54.671 21.9339 54.671 24.5379C54.671 27.1309 52.588 29.2279 50.037 29.2279C47.477 29.2279 45.404 27.1309 45.404 24.5379C45.403 21.9339 47.477 19.8169 50.037 19.8169V19.8169Z" fill="url(#paint0_linear_1_161)"/>
<path d="M91.6821 38.6402V49.6062C91.6821 58.1062 84.4741 65.2612 76.2561 65.2612H51.5911C44.8351 65.2612 39.2451 71.0442 39.2451 77.8102V101.325C39.2451 108.016 45.0631 111.953 51.5911 113.872C59.4071 116.169 66.9031 116.585 76.2561 113.872C82.4721 112.071 88.6021 108.449 88.6021 101.325V91.9132H63.9381V88.7752H100.95C108.126 88.7752 110.802 83.7702 113.298 76.2562C115.876 68.5212 115.765 61.0822 113.298 51.1602C111.524 44.0152 108.137 38.6392 100.95 38.6392H91.6821V38.6402ZM77.8091 98.1872C80.3701 98.1872 82.4431 100.284 82.4431 102.879C82.4431 105.481 80.3691 107.598 77.8091 107.598C75.2591 107.598 73.1761 105.481 73.1761 102.879C73.1761 100.284 75.2591 98.1872 77.8091 98.1872V98.1872Z" fill="url(#paint1_linear_1_161)"/>
<path opacity="0.444" d="M97.309 119.597C97.309 123.14 82.493 126.013 64.218 126.013C45.942 126.013 31.126 123.14 31.126 119.597C31.126 116.053 45.941 113.18 64.218 113.18C82.493 113.18 97.309 116.052 97.309 119.597Z" fill="url(#paint2_radial_1_161)"/>
<defs>
<linearGradient id="paint0_linear_1_161" x1="10.3368" y1="15.1905" x2="67.2906" y2="63.7604" gradientUnits="userSpaceOnUse">
<stop stop-color="#5A9FD4"/>
<stop offset="1" stop-color="#306998"/>
</linearGradient>
<linearGradient id="paint1_linear_1_161" x1="88.719" y1="93.9525" x2="68.2944" y2="65.3104" gradientUnits="userSpaceOnUse">
<stop stop-color="#FFD43B"/>
<stop offset="1" stop-color="#FFE873"/>
</linearGradient>
<radialGradient id="paint2_radial_1_161" cx="0" cy="0" r="1" gradientUnits="userSpaceOnUse" gradientTransform="translate(64.0842 119.413) rotate(-90) scale(6.41832 28.2139)">
<stop stop-color="#B8B8B8" stop-opacity="0.498"/>
<stop offset="1" stop-color="#7F7F7F" stop-opacity="0"/>
</radialGradient>
</defs>
</svg>
