<svg width="512" height="310" viewBox="0 0 512 310" fill="none" xmlns="http://www.w3.org/2000/svg">
<path d="M416 9H96C78.3269 9 64 23.3269 64 41V269C64 286.673 78.3269 301 96 301H416C433.673 301 448 286.673 448 269V41C448 23.3269 433.673 9 416 9Z" fill="#0A0C10"/>
<path d="M239.201 75.7847L251.076 92.293C252.142 93.7735 253.544 94.9796 255.168 95.8116C256.791 96.6437 258.589 97.0778 260.413 97.0783L318.544 97.0667C322.881 97.066 327.041 98.7873 330.109 101.852C333.176 104.917 334.902 109.075 334.906 113.412L334.934 220.79C334.927 225.122 333.202 229.274 330.139 232.336C327.075 235.398 322.922 237.12 318.59 237.125L157.419 237.154C153.081 237.155 148.92 235.432 145.851 232.365C142.783 229.298 141.059 225.138 141.058 220.799L141 82.5178C141 79.4715 142.21 76.5498 144.364 74.3956C146.518 72.2413 149.439 71.0308 152.486 71.0304L229.874 71C231.697 70.9996 233.494 71.4334 235.116 72.2655C236.737 73.0975 238.138 74.3039 239.201 75.7847Z" fill="#2B7FFF"/>
<g opacity="0.3">
<path d="M239.201 75.7847L251.076 92.293C252.142 93.7735 253.544 94.9796 255.168 95.8116C256.791 96.6437 258.589 97.0778 260.413 97.0783L318.544 97.0667C322.881 97.066 327.041 98.7873 330.109 101.852C333.176 104.917 334.902 109.075 334.906 113.412L334.934 220.79C334.927 225.122 333.202 229.274 330.139 232.336C327.075 235.398 322.922 237.12 318.59 237.125L157.419 237.154C153.081 237.155 148.92 235.432 145.851 232.365C142.783 229.298 141.059 225.138 141.058 220.799L141 82.5178C141 79.4715 142.21 76.5498 144.364 74.3956C146.518 72.2413 149.439 71.0308 152.486 71.0304L229.874 71C231.697 70.9996 233.494 71.4334 235.116 72.2655C236.737 73.0975 238.138 74.3039 239.201 75.7847Z" fill="black"/>
</g>
<path d="M209.76 78.8857L154.584 78.9016C153.334 78.902 152.321 79.9155 152.321 81.1653V81.2198C152.322 82.4697 153.336 83.4826 154.585 83.4822L209.761 83.4663C211.011 83.4659 212.024 82.4525 212.023 81.2027V81.1481C212.023 79.8983 211.01 78.8854 209.76 78.8857Z" fill="white"/>
<path d="M201.088 89.0268L154.086 88.8715C152.833 88.8673 151.814 89.8796 151.81 91.1325L151.81 91.1871C151.806 92.44 152.818 93.459 154.071 93.4632L201.072 93.6185C202.326 93.6226 203.344 92.6104 203.349 91.3575V91.3028C203.353 90.05 202.341 89.0309 201.088 89.0268Z" fill="white"/>
<path d="M324.301 231.447L154.972 231.506C152.928 231.503 150.967 230.689 149.521 229.244C148.075 227.799 147.259 225.841 147.254 223.797L147.227 119.389C147.228 117.344 148.041 115.383 149.487 113.936C150.932 112.489 152.892 111.675 154.937 111.671L324.275 111.621C326.32 111.623 328.281 112.436 329.727 113.881C331.174 115.326 331.989 117.286 331.993 119.331L332.029 223.73C332.023 225.777 331.206 227.737 329.757 229.183C328.309 230.629 326.347 231.443 324.301 231.447Z" fill="#E0E0E0"/>
<path d="M324.259 111.626L157.35 111.673C153.088 111.675 149.635 115.13 149.637 119.392L149.667 223.79C149.668 228.052 153.123 231.505 157.385 231.504L324.293 231.456C328.555 231.455 332.008 227.999 332.007 223.738L331.977 119.339C331.976 115.078 328.52 111.624 324.259 111.626Z" fill="white"/>
<path d="M162.864 231.502L197.804 231.486L173.929 125.703L162.864 231.502Z" fill="#F5F5F5"/>
<path d="M359.185 204.862L190.604 220.688C188.562 220.869 186.531 220.236 184.955 218.925C183.38 217.614 182.387 215.733 182.195 213.691L172.437 109.765C172.254 107.724 172.889 105.694 174.199 104.12C175.511 102.546 177.392 101.555 179.432 101.365L348.012 85.54C350.055 85.3551 352.087 85.9877 353.664 87.2991C355.239 88.6105 356.232 90.4937 356.421 92.5354L366.178 196.472C366.355 198.51 365.72 200.536 364.41 202.108C363.1 203.68 361.221 204.669 359.185 204.862Z" fill="white"/>
<path opacity="0.3" d="M348.006 85.5417L181.829 101.152C177.586 101.55 174.47 105.313 174.868 109.556L184.632 213.497C185.03 217.739 188.793 220.856 193.035 220.458L359.212 204.847C363.456 204.448 366.572 200.686 366.173 196.443L356.41 92.5023C356.011 88.2595 352.248 85.1431 348.006 85.5417Z" fill="#2B7FFF"/>
<path opacity="0.2" d="M344.279 107.501L189.554 122.018C188.656 122.101 187.761 121.824 187.065 121.249C186.37 120.674 185.93 119.847 185.842 118.949L185.365 113.783C185.323 113.339 185.37 112.89 185.5 112.464C185.632 112.036 185.847 111.64 186.132 111.296C186.417 110.952 186.767 110.668 187.162 110.46C187.557 110.251 187.989 110.122 188.434 110.081L343.159 95.5544C344.059 95.4699 344.954 95.7457 345.65 96.3213C346.346 96.8968 346.785 97.7252 346.871 98.6242L347.358 103.79C347.437 104.69 347.158 105.584 346.582 106.279C346.005 106.974 345.177 107.413 344.279 107.501Z" fill="#2B7FFF"/>
<path opacity="0.2" d="M345.255 116.804L190.31 131.351C189.877 131.389 189.455 131.512 189.071 131.713C188.686 131.915 188.344 132.189 188.065 132.523C187.787 132.856 187.577 133.242 187.448 133.657C187.319 134.071 187.272 134.508 187.312 134.94L187.732 139.527C187.77 139.961 187.894 140.381 188.095 140.767C188.296 141.152 188.571 141.493 188.905 141.772C189.238 142.05 189.623 142.26 190.038 142.389C190.453 142.518 190.889 142.564 191.322 142.524L346.268 127.978C346.699 127.939 347.119 127.817 347.504 127.617C347.888 127.416 348.23 127.141 348.508 126.809C348.786 126.476 348.996 126.092 349.126 125.678C349.256 125.265 349.302 124.829 349.264 124.398L348.834 119.81C348.758 118.936 348.337 118.13 347.666 117.567C346.996 117.003 346.128 116.729 345.255 116.804Z" fill="#2B7FFF"/>
<path d="M356.882 239.486L356.619 238.61C358.772 237.969 360.792 236.944 362.582 235.584L363.13 236.308C361.256 237.736 359.14 238.813 356.882 239.486Z" fill="#2B7FFF"/>
<path d="M368.191 230.665L367.414 230.198C369.161 227.283 370.079 223.948 370.072 220.55V206.881L370.983 206.884V220.554C370.987 224.115 370.022 227.609 368.191 230.665Z" fill="#2B7FFF"/>
<path d="M351.241 237.122L173.975 237.174L157.419 237.154C161.812 237.152 166.026 235.405 169.132 232.297C172.238 229.189 173.982 224.974 173.98 220.58L173.984 147.933C173.98 146.495 174.259 145.07 174.807 143.741C175.354 142.411 176.159 141.203 177.176 140.186C178.192 139.169 179.4 138.363 180.729 137.814C182.059 137.265 183.483 136.984 184.92 136.989L356.827 136.953C358.266 136.948 359.691 137.226 361.022 137.773C362.353 138.32 363.562 139.125 364.58 140.142C365.599 141.159 366.406 142.366 366.955 143.696C367.504 145.027 367.785 146.452 367.781 147.89L367.8 220.585C367.795 224.973 366.047 229.179 362.942 232.28C359.838 235.38 355.629 237.122 351.241 237.122Z" fill="#2B7FFF"/>
</svg>
