<svg width="512" height="310" viewBox="0 0 512 310" fill="none" xmlns="http://www.w3.org/2000/svg">
<rect x="64" y="9" width="384" height="292" rx="32" fill="#0A0C10"/>
<rect x="177" y="175" width="325" height="88" rx="14" fill="#11151B"/>
<rect x="263" y="191" width="104" height="24" rx="10" fill="#181D26"/>
<rect x="263" y="225" width="197" height="24" rx="10" fill="#181D26"/>
<rect x="189" y="187" width="64" height="64" rx="14" fill="#2B7FFF"/>
<path d="M233.548 210.995C233.777 211.224 233.906 211.532 233.906 211.856V235.344C233.906 236.018 233.362 236.562 232.688 236.562H208.312C207.638 236.562 207.094 236.018 207.094 235.344V203.656C207.094 202.982 207.638 202.438 208.312 202.438H224.488C224.811 202.438 225.124 202.567 225.352 202.796L233.548 210.995ZM231.096 212.416L223.928 205.248V212.416H231.096ZM212.273 205.18V207.617H214.711V205.18H212.273ZM214.711 207.617V210.055H217.148V207.617H214.711ZM212.273 210.055V212.492H214.711V210.055H212.273ZM214.711 212.492V214.93H217.148V212.492H214.711ZM212.273 214.93V217.367H214.711V214.93H212.273ZM214.711 217.367V219.805H217.148V217.367H214.711ZM212.273 219.805V222.242H214.711V219.805H212.273ZM212.273 222.242V228.336H217.148V222.242H212.273ZM214.102 224.07H215.32V226.508H214.102V224.07Z" fill="black" fill-opacity="0.5"/>
<rect x="10" y="47" width="325" height="88" rx="14" fill="#11151B"/>
<rect x="96" y="63" width="104" height="24" rx="10" fill="#181D26"/>
<rect x="96" y="97" width="197" height="24" rx="10" fill="#181D26"/>
<rect x="22" y="59" width="64" height="64" rx="14" fill="#2B7FFF"/>
<path d="M66.5482 82.9954C66.7768 83.2239 66.9062 83.5324 66.9062 83.8562V107.344C66.9062 108.018 66.3616 108.562 65.6875 108.562H41.3125C40.6384 108.562 40.0938 108.018 40.0938 107.344V75.6562C40.0938 74.9821 40.6384 74.4375 41.3125 74.4375H57.4876C57.8113 74.4375 58.1236 74.567 58.3521 74.7955L66.5482 82.9954ZM64.0955 84.416L56.9277 77.2482V84.416H64.0955ZM45.2734 77.1797V79.6172H47.7109V77.1797H45.2734ZM47.7109 79.6172V82.0547H50.1484V79.6172H47.7109ZM45.2734 82.0547V84.4922H47.7109V82.0547H45.2734ZM47.7109 84.4922V86.9297H50.1484V84.4922H47.7109ZM45.2734 86.9297V89.3672H47.7109V86.9297H45.2734ZM47.7109 89.3672V91.8047H50.1484V89.3672H47.7109ZM45.2734 91.8047V94.2422H47.7109V91.8047H45.2734ZM45.2734 94.2422V100.336H50.1484V94.2422H45.2734ZM47.1016 96.0703H48.3203V98.5078H47.1016V96.0703Z" fill="black" fill-opacity="0.5"/>
</svg>
